<?xml version="1.0" standalone="no"?>
<!DOCTYPE svg PUBLIC "-//W3C//DTD SVG 20010904//EN"
 "http://www.w3.org/TR/2001/REC-SVG-20010904/DTD/svg10.dtd">
<svg version="1.0" xmlns="http://www.w3.org/2000/svg"
 width="640.000000pt" height="640.000000pt" viewBox="0 0 640.000000 640.000000"
 preserveAspectRatio="xMidYMid meet">
<metadata>
Created by potrace 1.14, written by Peter Selinger 2001-2017
</metadata>
<g transform="translate(0.000000,640.000000) scale(0.100000,-0.100000)"
fill="#000000" stroke="none">
<path d="M3015 6314 c-77 -47 -147 -87 -155 -91 -8 -3 -26 -14 -40 -23 -14
-10 -45 -28 -70 -42 -46 -26 -190 -111 -377 -222 -57 -34 -117 -69 -135 -78
-18 -9 -38 -21 -43 -26 -6 -5 -57 -35 -113 -68 -57 -32 -115 -67 -130 -76 -15
-10 -34 -21 -42 -25 -8 -4 -82 -47 -165 -96 -82 -49 -170 -101 -195 -115 -25
-14 -57 -32 -71 -41 -15 -9 -73 -43 -130 -76 -57 -33 -105 -63 -107 -67 -2 -4
-8 -8 -13 -8 -5 0 -77 -40 -160 -90 -82 -49 -154 -90 -160 -90 -5 0 -9 -4 -9
-10 0 -5 -4 -10 -10 -10 -5 0 -49 -24 -97 -53 -48 -29 -95 -56 -103 -60 -8 -4
-28 -16 -45 -27 -16 -11 -46 -28 -65 -38 -19 -10 -50 -27 -67 -38 l-33 -19 0
-1576 c0 -1501 1 -1577 18 -1581 9 -3 63 -34 118 -69 55 -35 109 -69 119 -76
36 -22 169 -105 225 -141 30 -19 71 -45 90 -57 19 -12 49 -30 65 -41 17 -10
38 -23 47 -29 9 -5 63 -39 120 -75 56 -36 107 -67 113 -69 5 -2 12 -7 15 -11
3 -3 45 -31 93 -61 48 -30 100 -62 115 -71 15 -10 42 -25 60 -35 17 -9 32 -21
32 -25 0 -5 4 -7 9 -4 4 3 16 -3 26 -14 10 -11 22 -20 26 -20 4 0 54 -30 111
-66 57 -37 114 -74 128 -82 14 -9 28 -16 31 -15 4 1 15 -7 24 -17 10 -11 24
-20 32 -20 7 0 13 -4 13 -10 0 -5 4 -10 9 -10 5 0 58 -31 118 -70 59 -38 134
-84 166 -102 31 -18 57 -36 57 -40 0 -5 6 -8 13 -8 7 0 22 -8 33 -18 10 -9 30
-23 44 -29 31 -16 63 -36 70 -44 3 -3 10 -8 15 -10 6 -2 66 -39 135 -82 69
-44 175 -110 235 -148 61 -37 116 -73 123 -79 23 -20 46 -14 119 33 39 26 76
47 82 47 6 0 11 4 11 9 0 5 8 12 18 15 18 6 219 128 239 146 7 5 16 10 20 10
5 0 32 16 62 35 29 19 57 35 62 35 5 0 9 3 9 8 0 4 21 18 48 32 26 13 49 27
52 30 3 3 68 44 145 90 77 47 188 114 247 150 59 36 162 99 230 140 68 41 218
132 333 202 116 71 217 133 225 138 204 123 306 186 308 193 2 4 8 7 13 7 4 0
56 29 114 65 57 36 109 65 114 65 5 0 11 4 13 8 2 5 76 52 166 106 l162 99 0
1571 0 1571 -47 25 c-27 13 -50 27 -53 30 -3 4 -34 22 -70 41 -36 19 -67 37
-70 40 -3 4 -23 15 -45 26 -43 21 -363 204 -405 231 -14 9 -27 17 -30 17 -10
0 -85 49 -88 57 -2 4 -10 8 -17 8 -7 0 -73 35 -146 78 -74 43 -141 81 -149 85
-8 4 -31 17 -50 29 -19 11 -57 33 -85 48 -27 15 -75 42 -105 60 -59 35 -105
62 -160 92 -19 11 -53 30 -75 44 -22 13 -53 31 -70 39 -16 8 -52 29 -80 45
-27 17 -59 35 -70 41 -11 5 -38 20 -60 34 -22 13 -47 27 -55 31 -8 4 -69 39
-135 78 -66 38 -136 78 -155 88 -19 10 -42 23 -50 28 -32 20 -222 130 -225
130 -2 0 -59 32 -125 71 -67 39 -127 72 -133 74 -7 2 -75 -35 -152 -81z"/>
</g>
</svg>
